<?xml version="1.0" encoding="UTF-8" standalone="no"?>
<svg
   width="33"
   height="31"
   viewBox="0 0 33 31"
   fill="none"
   version="1.1"
   id="svg10915"
   sodipodi:docname="cart-icon.svg"
   inkscape:export-filename="cart-icon.png"
   inkscape:export-xdpi="99.096771"
   inkscape:export-ydpi="99.096771"
   inkscape:version="1.2.2 (b0a8486541, 2022-12-01)"
   xmlns:inkscape="http://www.inkscape.org/namespaces/inkscape"
   xmlns:sodipodi="http://sodipodi.sourceforge.net/DTD/sodipodi-0.dtd"
   xmlns="http://www.w3.org/2000/svg"
   xmlns:svg="http://www.w3.org/2000/svg">
  <defs
     id="defs10919" />
  <sodipodi:namedview
     id="namedview10917"
     pagecolor="#ffffff"
     bordercolor="#000000"
     borderopacity="0.25"
     inkscape:showpageshadow="2"
     inkscape:pageopacity="0.0"
     inkscape:pagecheckerboard="0"
     inkscape:deskcolor="#d1d1d1"
     showgrid="false"
     inkscape:zoom="7.6129032"
     inkscape:cx="13.595339"
     inkscape:cy="15.5"
     inkscape:window-width="1024"
     inkscape:window-height="655"
     inkscape:window-x="0"
     inkscape:window-y="0"
     inkscape:window-maximized="1"
     inkscape:current-layer="svg10915" />
  <rect
     style="fill:#1a1a1a;stroke-width:4.96168;paint-order:fill markers stroke"
     id="rect11044"
     width="32.999584"
     height="31.258606"
     x="0.16419491"
     y="-0.11852819" />
  <path
     d="m 12.203423,30.887116 c 1.3807,0 2.5,-1.1193 2.5,-2.5 0,-1.3807 -1.1193,-2.5 -2.5,-2.5 -1.3807,0 -2.5000003,1.1193 -2.5000003,2.5 0,1.3807 1.1193003,2.5 2.5000003,2.5 z"
     fill="#ffffff"
     id="path11038" />
  <path
     d="m 25.203423,30.887116 c 1.3807,0 2.5,-1.1193 2.5,-2.5 0,-1.3807 -1.1193,-2.5 -2.5,-2.5 -1.3807,0 -2.5,1.1193 -2.5,2.5 0,1.3807 1.1193,2.5 2.5,2.5 z"
     fill="#ffffff"
     id="path11040" />
  <path
     d="m 32.153223,4.444706 c -0.0973,-0.12639 -0.2222,-0.2288101 -0.3652,-0.2994201 -0.143,-0.0706 -0.3003,-0.1075099 -0.4598,-0.1079 H 7.2024527 L 6.7324727,2.543886 c -0.05163,-0.1603501 -0.14128,-0.30585 -0.26131,-0.42406 -0.12003,-0.11821 -0.26687,-0.2056301 -0.428,-0.2548 l -4.28206,-1.315947 c -0.13166,-0.04046 -0.27001,-0.054591 -0.40714,-0.041584 -0.13713,0.013006 -0.27035,0.052895 -0.39206,0.117388 -0.24581,0.130249 -0.429811,0.35281295 -0.511524,0.6187229 -0.08171,0.26591 -0.05445,0.5534 0.0758,0.7992101 0.130249,0.24581 0.35281,0.42981 0.61872,0.51152 l 3.74942,1.14884 4.78337,15.11254 -1.70238,1.3995 -0.13578,0.1358 c -0.421,0.4875 -0.65952,1.1061 -0.67476,1.75 -0.01524,0.644 0.19375,1.2732 0.59121,1.78 0.28466,0.3462 0.64639,0.621 1.05625,0.8023 0.40986,0.1814 0.85647,0.2643 1.3040903,0.2422 h 17.4311 c 0.277,0 0.5427,-0.1101 0.7385,-0.3059 0.1959,-0.1959 0.3059,-0.4616 0.3059,-0.7386 0,-0.2769 -0.11,-0.5426 -0.3059,-0.7385 -0.1958,-0.1958 -0.4615,-0.3059 -0.7385,-0.3059 H 9.9492187 c -0.1203,-0.0041 -0.2374,-0.0391 -0.3402,-0.1017 -0.10276,-0.0626 -0.18764,-0.1507 -0.24644,-0.2557 -0.05879,-0.105 -0.08952,-0.2234 -0.08921,-0.3437 3.1e-4,-0.1203 0.03165,-0.2386 0.09099,-0.3433 l 2.5170603,-2.0888 h 16.1151 c 0.2386,0.007 0.4724,-0.068 0.6624,-0.2124 0.19,-0.1444 0.3248,-0.3496 0.382,-0.5813 l 3.3421,-13.57727 c 0.0318,-0.1557 0.0276,-0.31659 -0.0122,-0.47043 -0.0399,-0.15384 -0.1142,-0.29657 -0.2176,-0.41731 z"
     fill="#ffffff"
     id="path11042" />
</svg>
