<?xml version="1.0" encoding="UTF-8" standalone="no"?>
<!-- Uploaded to: SVG Repo, www.svgrepo.com, Generator: SVG Repo Mixer Tools -->

<svg
   width="800px"
   height="800px"
   viewBox="0 0 24 24"
   fill="none"
   version="1.1"
   id="svg8555"
   sodipodi:docname="mouse-svgrepo-com.svg"
   inkscape:version="1.2.2 (b0a8486541, 2022-12-01)"
   xmlns:inkscape="http://www.inkscape.org/namespaces/inkscape"
   xmlns:sodipodi="http://sodipodi.sourceforge.net/DTD/sodipodi-0.dtd"
   xmlns="http://www.w3.org/2000/svg"
   xmlns:svg="http://www.w3.org/2000/svg">
  <defs
     id="defs8559" />
  <sodipodi:namedview
     id="namedview8557"
     pagecolor="#ffffff"
     bordercolor="#000000"
     borderopacity="0.25"
     inkscape:showpageshadow="2"
     inkscape:pageopacity="0.0"
     inkscape:pagecheckerboard="0"
     inkscape:deskcolor="#d1d1d1"
     showgrid="false"
     inkscape:zoom="0.295"
     inkscape:cx="306.77966"
     inkscape:cy="318.64407"
     inkscape:window-width="1024"
     inkscape:window-height="655"
     inkscape:window-x="0"
     inkscape:window-y="0"
     inkscape:window-maximized="1"
     inkscape:current-layer="svg8555" />
  <rect
     style="fill:#1a1a1a;stroke-width:0.149175;paint-order:fill markers stroke"
     id="rect8688"
     width="24.40797"
     height="23.88162"
     x="0.083421253"
     y="0.068326302" />
  <path
     d="m 5.2574153,9.1163927 c 0,-3.86599 3.13401,-7 6.9999997,-7 3.866,0 7,3.13401 7,7 v 6.0000003 c 0,3.866 -3.134,7 -7,7 -3.8659897,0 -6.9999997,-3.134 -6.9999997,-7 z"
     stroke="#1c274c"
     stroke-width="1.5"
     id="path9913" />
  <path
     d="m 10.757415,8.6163927 c 0,-0.82843 0.6716,-1.5 1.5,-1.5 0.8284,0 1.5,0.67157 1.5,1.5 v 2.0000003 c 0,0.8284 -0.6716,1.5 -1.5,1.5 -0.8284,0 -1.5,-0.6716 -1.5,-1.5 z"
     stroke="#1c274c"
     stroke-width="1.5"
     id="path9915"
     style="fill:#ffffff" />
  <path
     opacity="0.5"
     d="m 12.257415,2.1163927 v 5"
     stroke="#1c274c"
     stroke-width="1.5"
     stroke-linecap="round"
     id="path9917" />
  <path
     d="m 5.2574153,9.1163927 c 0,-3.86599 3.13401,-7 6.9999997,-7 3.866,0 7,3.13401 7,7 v 6.0000003 c 0,3.866 -3.134,7 -7,7 -3.8659897,0 -6.9999997,-3.134 -6.9999997,-7 z"
     stroke="#1c274c"
     stroke-width="1.5"
     id="path9919" />
  <path
     style="fill:#ffffff;stroke-width:0.501588;paint-order:fill markers stroke"
     d="M 10.661488,22.661719 C 7.4725439,21.93499 5.0729447,19.348825 4.6326278,16.164118 4.4588312,14.907091 4.4899703,8.8854787 4.6757771,7.8199837 5.1650186,5.0144656 7.112006,2.7500236 9.8616263,1.7885869 10.619064,1.5237397 10.78392,1.5042751 12.251456,1.5064171 c 1.438465,0.0021 1.647397,0.026228 2.389831,0.2759937 1.217202,0.4094844 2.025002,0.9271356 3.050847,1.9550328 1.039014,1.0410918 1.607579,1.9947315 2.001918,3.3577641 0.22918,0.792162 0.23537,0.924549 0.23537,5.0338983 0,3.780441 -0.01937,4.288623 -0.185813,4.875471 -0.762971,2.690046 -2.671534,4.667811 -5.305712,5.498094 -0.913378,0.287892 -2.852633,0.369564 -3.776409,0.159048 z m 3.648431,-1.610115 c 2.104303,-0.775212 3.62415,-2.506269 4.092222,-4.660911 0.143468,-0.660417 0.162541,-1.330803 0.131642,-4.627119 C 18.499656,8.1229567 18.485308,7.8720367 18.27555,7.2477487 17.646826,5.3765212 16.252921,3.921301 14.407033,3.2090617 13.516224,2.8653415 11.713012,2.7665734 10.764575,3.0095515 8.9227826,3.4813969 7.32164,4.8045214 6.547868,6.4940827 5.9903381,7.7114677 5.9271371,8.3644177 5.9662175,12.503281 l 0.035357,3.744468 0.2815494,0.802389 c 0.3599592,1.02585 0.6814332,1.569036 1.3665756,2.30907 0.8962134,0.968019 2.0872328,1.657047 3.3305705,1.92681 0.22373,0.04854 0.910169,0.07248 1.525424,0.0532 0.8778,-0.02751 1.266249,-0.08943 1.804225,-0.287616 z"
     id="path9921" />
  <path
     style="fill:#ffffff;stroke-width:0.501588;paint-order:fill markers stroke"
     d="m 11.539592,4.6918075 c 0,-1.9249203 -0.05786,-1.818201 0.940678,-1.7350095 l 0.483051,0.040244 v 1.6931503 1.6931484 h -0.711865 -0.711864 z"
     id="path9923" />
  <path
     style="fill:#ffffff;stroke-width:0.501588;paint-order:fill markers stroke"
     d="m 11.742323,12.751168 c -0.880546,-0.285867 -1.433695,-0.890469 -1.634139,-1.786146 -0.1882587,-0.84123 -0.08039,-2.7517833 0.184035,-3.2596473 0.764439,-1.468191 2.504054,-1.7018646 3.602172,-0.483861 0.49728,0.551568 0.628375,1.17159 0.576159,2.724975 -0.0438,1.3030713 -0.193945,1.7787783 -0.709197,2.2469913 -0.535318,0.486447 -1.455531,0.740625 -2.01903,0.557688 z m 1.073078,-1.583541 c 0.238206,-0.238206 0.249614,-0.307302 0.249614,-1.5117093 0,-1.122843 -0.02326,-1.291659 -0.21077,-1.530048 -0.301579,-0.383394 -0.907805,-0.378555 -1.213194,0.00968 -0.202243,0.257109 -0.215945,0.374319 -0.185347,1.585488 0.03113,1.2320613 0.04695,1.3191063 0.27312,1.5020253 0.334353,0.27042 0.78364,0.247497 1.086577,-0.05544 z"
     id="path9925" />
</svg>
