<?xml version="1.0" encoding="UTF-8" standalone="no"?>
<!-- Created with Inkscape (http://www.inkscape.org/) -->

<svg
   version="1.1"
   id="svg148"
   width="692.59534"
   height="701.46814"
   viewBox="0 0 692.59534 701.46814"
   sodipodi:docname="ordenador-personal.png"
   inkscape:version="1.2.2 (b0a8486541, 2022-12-01)"
   inkscape:export-filename="ordenador-personal.png"
   inkscape:export-xdpi="96"
   inkscape:export-ydpi="96"
   inkscape:dataloss="true"
   xmlns:inkscape="http://www.inkscape.org/namespaces/inkscape"
   xmlns:sodipodi="http://sodipodi.sourceforge.net/DTD/sodipodi-0.dtd"
   xmlns="http://www.w3.org/2000/svg"
   xmlns:svg="http://www.w3.org/2000/svg">
  <defs
     id="defs152" />
  <sodipodi:namedview
     id="namedview150"
     pagecolor="#ffffff"
     bordercolor="#000000"
     borderopacity="0.25"
     inkscape:showpageshadow="2"
     inkscape:pageopacity="0.0"
     inkscape:pagecheckerboard="0"
     inkscape:deskcolor="#d1d1d1"
     showgrid="false"
     inkscape:zoom="0.30029296"
     inkscape:cx="404.60489"
     inkscape:cy="406.26993"
     inkscape:window-width="1024"
     inkscape:window-height="655"
     inkscape:window-x="0"
     inkscape:window-y="0"
     inkscape:window-maximized="1"
     inkscape:current-layer="g154" />
  <g
     inkscape:groupmode="layer"
     inkscape:label="Image"
     id="g154"
     transform="translate(3.1939883,9.0442457)">
    <rect
       style="fill:#ffffff;stroke-width:7.10548;paint-order:fill markers stroke"
       id="rect424"
       width="59.10894"
       height="593.6261"
       x="121.00163"
       y="40.754452" />
    <rect
       style="fill:#1a1a1a;stroke-width:5.01778;paint-order:fill markers stroke"
       id="rect6462"
       width="692.59534"
       height="701.46814"
       x="-3.1939883"
       y="-9.0442457" />
    <rect
       style="fill:#ffffff;stroke-width:6.16479;paint-order:fill markers stroke"
       id="rect6464"
       width="358.57352"
       height="42.198376"
       x="160.64647"
       y="0.52568573" />
    <rect
       style="fill:#ffffff;stroke-width:5.123;paint-order:fill markers stroke"
       id="rect6466"
       width="247.62277"
       height="42.198376"
       x="214.38377"
       y="87.048164" />
    <rect
       style="fill:#ffffff;stroke-width:4.81613;paint-order:fill markers stroke"
       id="rect6468"
       width="38.386993"
       height="73.622093"
       x="245.65538"
       y="125.84982" />
    <rect
       style="fill:#ffffff;stroke-width:7.10548;paint-order:fill markers stroke"
       id="rect6470"
       width="59.10894"
       height="593.6261"
       x="161.0244"
       y="39.163616" />
    <ellipse
       style="fill:#ffffff;stroke-width:8.92839;paint-order:fill markers stroke"
       id="ellipse6472"
       cx="339.02011"
       cy="466.92322"
       rx="145.75633"
       ry="112.12328" />
    <rect
       style="fill:#ffffff;stroke-width:6.15157;paint-order:fill markers stroke"
       id="rect6474"
       width="357.03741"
       height="42.198376"
       x="160.90086"
       y="633.83417" />
    <rect
       style="fill:#ffffff;stroke-width:7.09934;paint-order:fill markers stroke"
       id="rect6476"
       width="59.10894"
       height="592.59839"
       x="458.62448"
       y="43.534344" />
    <rect
       style="fill:#ffffff;stroke-width:5.02496;paint-order:fill markers stroke"
       id="rect6478"
       width="155.90756"
       height="37.851486"
       x="277.46982"
       y="161.56573" />
    <rect
       style="fill:#ffffff;stroke-width:4.69871;paint-order:fill markers stroke"
       id="rect6480"
       width="38.386993"
       height="70.07621"
       x="395.12802"
       y="127.50715" />
    <rect
       style="fill:#ffffff;stroke-width:4.98364;paint-order:fill markers stroke"
       id="rect6482"
       width="237.50969"
       height="36.433823"
       x="220.74327"
       y="316.12619" />
    <path
       style="fill:#ffffff;stroke-width:11.6142;paint-order:fill markers stroke"
       d="m 447.38989,390.28644 c -12.25,-10.72828 -48.2614,-28.1874 -64.7549,-31.39463 -7.123,-1.38511 -15.0702,-2.9357 -17.6604,-3.44577 -2.5902,-0.51006 17.2778,-1.0503 44.1511,-1.20053 l 48.8605,-0.27316 v 22.36987 c 0,12.30343 -0.2649,22.33009 -0.5887,22.28146 -0.3238,-0.0486 -4.8272,-3.80039 -10.0076,-8.33724 z"
       id="path6484" />
    <path
       style="fill:#ffffff;stroke-width:11.6142;paint-order:fill markers stroke"
       d="m 220.15909,376.52571 v -22.55336 l 48.8606,0.27316 c 26.8732,0.15023 46.7412,0.69047 44.151,1.20053 -2.5902,0.51007 -10.5374,2.06066 -17.6604,3.44577 -16.7657,3.26016 -52.5509,20.54772 -65.3436,31.56701 l -10.0076,8.62025 z"
       id="path6486" />
    <ellipse
       style="fill:#1a1a1a;stroke-width:7.41942;paint-order:fill markers stroke"
       id="ellipse6488"
       cx="337.20346"
       cy="450.52734"
       rx="57.429268"
       ry="52.815704" />
    <ellipse
       style="fill:#ffffff;stroke-width:8.92839;paint-order:fill markers stroke"
       id="ellipse6490"
       cx="339.02011"
       cy="466.92322"
       rx="145.75633"
       ry="112.12328" />
    <ellipse
       style="fill:#ffffff;stroke-width:6.84252;paint-order:fill markers stroke"
       id="ellipse6492"
       cx="334.70407"
       cy="447.99609"
       rx="22.333078"
       ry="20.631422" />
    <rect
       style="fill:#ffffff;stroke-width:7.09934;paint-order:fill markers stroke"
       id="rect6494"
       width="59.10894"
       height="592.59839"
       x="458.62448"
       y="43.534344" />
    <rect
       style="fill:#ffffff;stroke-width:5.123;paint-order:fill markers stroke"
       id="rect6496"
       width="247.62277"
       height="42.198376"
       x="214.38377"
       y="87.048164" />
    <rect
       style="fill:#ffffff;stroke-width:7.10548;paint-order:fill markers stroke"
       id="rect6498"
       width="59.10894"
       height="593.6261"
       x="161.0244"
       y="39.163616" />
    <rect
       style="fill:#ffffff;stroke-width:4.69871;paint-order:fill markers stroke"
       id="rect6500"
       width="38.386993"
       height="70.07621"
       x="395.12802"
       y="127.50715" />
    <rect
       style="fill:#ffffff;stroke-width:4.81613;paint-order:fill markers stroke"
       id="rect6502"
       width="38.386993"
       height="73.622093"
       x="245.65538"
       y="125.84982" />
    <rect
       style="fill:#ffffff;stroke-width:5.02496;paint-order:fill markers stroke"
       id="rect6504"
       width="155.90756"
       height="37.851486"
       x="277.46982"
       y="161.56573" />
    <rect
       style="fill:#ffffff;stroke-width:4.98364;paint-order:fill markers stroke"
       id="rect6506"
       width="237.50969"
       height="36.433823"
       x="220.74327"
       y="316.12619" />
    <path
       style="fill:#ffffff;stroke-width:11.6142;paint-order:fill markers stroke"
       d="m 447.38989,390.28644 c -12.25,-10.72828 -48.2614,-28.1874 -64.7549,-31.39463 -7.123,-1.38511 -15.0702,-2.9357 -17.6604,-3.44577 -2.5902,-0.51006 17.2778,-1.0503 44.1511,-1.20053 l 48.8605,-0.27316 v 22.36987 c 0,12.30343 -0.2649,22.33009 -0.5887,22.28146 -0.3238,-0.0486 -4.8272,-3.80039 -10.0076,-8.33724 z"
       id="path6508" />
    <ellipse
       style="fill:#1a1a1a;stroke-width:7.41942;paint-order:fill markers stroke"
       id="ellipse6510"
       cx="337.20346"
       cy="450.52734"
       rx="57.429268"
       ry="52.815704" />
    <path
       style="fill:#ffffff;stroke-width:11.6142;paint-order:fill markers stroke"
       d="m 220.15909,376.52571 v -22.55336 l 48.8606,0.27316 c 26.8732,0.15023 46.7412,0.69047 44.151,1.20053 -2.5902,0.51007 -10.5374,2.06066 -17.6604,3.44577 -16.7657,3.26016 -52.5509,20.54772 -65.3436,31.56701 l -10.0076,8.62025 z"
       id="path6512" />
    <ellipse
       style="fill:#ffffff;stroke-width:6.84252;paint-order:fill markers stroke"
       id="ellipse6514"
       cx="334.70407"
       cy="447.99609"
       rx="22.333078"
       ry="20.631422" />
    <rect
       style="fill:#ffffff;stroke-width:5.123;paint-order:fill markers stroke"
       id="rect6516"
       width="247.62277"
       height="42.198376"
       x="214.38377"
       y="87.048164" />
    <rect
       style="fill:#ffffff;stroke-width:4.81613;paint-order:fill markers stroke"
       id="rect6518"
       width="38.386993"
       height="73.622093"
       x="245.65538"
       y="125.84982" />
    <rect
       style="fill:#ffffff;stroke-width:7.10548;paint-order:fill markers stroke"
       id="rect6520"
       width="59.10894"
       height="593.6261"
       x="161.0244"
       y="39.163616" />
    <ellipse
       style="fill:#ffffff;stroke-width:8.92839;paint-order:fill markers stroke"
       id="ellipse6522"
       cx="339.02011"
       cy="466.92322"
       rx="145.75633"
       ry="112.12328" />
    <rect
       style="fill:#ffffff;stroke-width:6.15157;paint-order:fill markers stroke"
       id="rect6524"
       width="357.03741"
       height="42.198376"
       x="160.90086"
       y="633.83417" />
    <rect
       style="fill:#ffffff;stroke-width:7.09934;paint-order:fill markers stroke"
       id="rect6526"
       width="59.10894"
       height="592.59839"
       x="458.62448"
       y="43.534344" />
    <rect
       style="fill:#ffffff;stroke-width:5.02496;paint-order:fill markers stroke"
       id="rect6528"
       width="155.90756"
       height="37.851486"
       x="277.46982"
       y="161.56573" />
    <rect
       style="fill:#ffffff;stroke-width:4.69871;paint-order:fill markers stroke"
       id="rect6530"
       width="38.386993"
       height="70.07621"
       x="395.12802"
       y="127.50715" />
    <rect
       style="fill:#ffffff;stroke-width:4.98364;paint-order:fill markers stroke"
       id="rect6532"
       width="237.50969"
       height="36.433823"
       x="220.74327"
       y="316.12619" />
    <path
       style="fill:#ffffff;stroke-width:11.6142;paint-order:fill markers stroke"
       d="m 447.38989,390.28644 c -12.25,-10.72828 -48.2614,-28.1874 -64.7549,-31.39463 -7.123,-1.38511 -15.0702,-2.9357 -17.6604,-3.44577 -2.5902,-0.51006 17.2778,-1.0503 44.1511,-1.20053 l 48.8605,-0.27316 v 22.36987 c 0,12.30343 -0.2649,22.33009 -0.5887,22.28146 -0.3238,-0.0486 -4.8272,-3.80039 -10.0076,-8.33724 z"
       id="path6534" />
    <path
       style="fill:#ffffff;stroke-width:11.6142;paint-order:fill markers stroke"
       d="m 220.15909,376.52571 v -22.55336 l 48.8606,0.27316 c 26.8732,0.15023 46.7412,0.69047 44.151,1.20053 -2.5902,0.51007 -10.5374,2.06066 -17.6604,3.44577 -16.7657,3.26016 -52.5509,20.54772 -65.3436,31.56701 l -10.0076,8.62025 z"
       id="path6536" />
    <ellipse
       style="fill:#1a1a1a;stroke-width:7.41942;paint-order:fill markers stroke"
       id="ellipse6538"
       cx="337.20346"
       cy="450.52734"
       rx="57.429268"
       ry="52.815704" />
    <ellipse
       style="fill:#ffffff;stroke-width:9.06849;paint-order:fill markers stroke"
       id="ellipse6540"
       cx="340.75668"
       cy="464.73865"
       rx="147.49292"
       ry="114.30784" />
    <ellipse
       style="fill:#ffffff;stroke-width:6.84252;paint-order:fill markers stroke"
       id="ellipse6542"
       cx="334.70407"
       cy="447.99609"
       rx="22.333078"
       ry="20.631422" />
    <rect
       style="fill:#ffffff;stroke-width:7.1421;paint-order:fill markers stroke"
       id="rect6544"
       width="59.10894"
       height="599.75916"
       x="458.62448"
       y="36.373592" />
    <rect
       style="fill:#ffffff;stroke-width:5.123;paint-order:fill markers stroke"
       id="rect6546"
       width="247.62277"
       height="42.198376"
       x="214.38377"
       y="87.048164" />
    <rect
       style="fill:#ffffff;stroke-width:7.1401;paint-order:fill markers stroke"
       id="rect6548"
       width="59.10894"
       height="599.42554"
       x="161.0244"
       y="39.163616" />
    <rect
       style="fill:#ffffff;stroke-width:4.69871;paint-order:fill markers stroke"
       id="rect6550"
       width="38.386993"
       height="70.07621"
       x="395.12802"
       y="127.50715" />
    <rect
       style="fill:#ffffff;stroke-width:4.81613;paint-order:fill markers stroke"
       id="rect6552"
       width="38.386993"
       height="73.622093"
       x="245.65538"
       y="125.84982" />
    <rect
       style="fill:#ffffff;stroke-width:5.02496;paint-order:fill markers stroke"
       id="rect6554"
       width="155.90756"
       height="37.851486"
       x="277.46982"
       y="161.56573" />
    <rect
       style="fill:#ffffff;stroke-width:7.53939;paint-order:fill markers stroke"
       id="rect6556"
       width="247.74455"
       height="79.939445"
       x="219.11986"
       y="316.12619" />
    <path
       style="fill:#ffffff;stroke-width:12.3015;paint-order:fill markers stroke"
       d="m 457.46119,390.28644 c -13.7429,-10.72828 -54.1428,-28.1874 -72.6463,-31.39463 -7.9911,-1.38511 -16.9068,-2.9357 -19.8126,-3.44577 -2.9059,-0.51006 19.3833,-1.0503 49.5316,-1.20053 l 54.8149,-0.27316 v 22.36987 c 0,12.30343 -0.2972,22.33009 -0.6604,22.28146 -0.3633,-0.0486 -5.4155,-3.80039 -11.2272,-8.33724 z"
       id="path6558" />
    <ellipse
       style="fill:#1a1a1a;stroke-width:7.41942;paint-order:fill markers stroke"
       id="ellipse6560"
       cx="337.20346"
       cy="450.52734"
       rx="57.429268"
       ry="52.815704" />
    <path
       style="fill:#ffffff;stroke-width:11.6142;paint-order:fill markers stroke"
       d="m 220.15909,376.52571 v -22.55336 l 48.8606,0.27316 c 26.8732,0.15023 46.7412,0.69047 44.151,1.20053 -2.5902,0.51007 -10.5374,2.06066 -17.6604,3.44577 -16.7657,3.26016 -52.5509,20.54772 -65.3436,31.56701 l -10.0076,8.62025 z"
       id="path6562" />
    <ellipse
       style="fill:#ffffff;stroke-width:6.84252;paint-order:fill markers stroke"
       id="ellipse6564"
       cx="334.70407"
       cy="447.99609"
       rx="22.333078"
       ry="20.631422" />
  </g>
</svg>
