<?xml version="1.0" encoding="UTF-8" standalone="no"?>
<!-- Created with Inkscape (http://www.inkscape.org/) -->

<svg
   version="1.1"
   id="svg9992"
   width="512"
   height="512"
   viewBox="0 0 512 512"
   sodipodi:docname="silla-giratoria.png"
   inkscape:export-filename="silla-giratoria.png"
   inkscape:export-xdpi="6"
   inkscape:export-ydpi="6"
   xmlns:inkscape="http://www.inkscape.org/namespaces/inkscape"
   xmlns:sodipodi="http://sodipodi.sourceforge.net/DTD/sodipodi-0.dtd"
   xmlns="http://www.w3.org/2000/svg"
   xmlns:svg="http://www.w3.org/2000/svg">
  <defs
     id="defs9996" />
  <sodipodi:namedview
     id="namedview9994"
     pagecolor="#ffffff"
     bordercolor="#000000"
     borderopacity="0.25"
     inkscape:showpageshadow="2"
     inkscape:pageopacity="0.0"
     inkscape:pagecheckerboard="0"
     inkscape:deskcolor="#d1d1d1"
     showgrid="false" />
  <g
     inkscape:groupmode="layer"
     inkscape:label="Image"
     id="g9998">
    <rect
       style="fill:#1a1a1a;stroke-width:4.98428;paint-order:fill markers stroke"
       id="rect10561"
       width="511.90677"
       height="517.46613"
       x="1.1694915"
       y="-2.5762711"
       ry="0" />
    <path
       style="fill:#ffffff;stroke-width:10.7005;paint-order:fill markers stroke"
       d="m 238.02543,291.04432 v -7.44722 l -35.96858,-0.68838 -35.96858,-0.68838 -7.35332,-8.02961 c -4.04432,-4.41628 -7.99086,-10.56976 -8.77007,-13.67441 -0.77922,-3.10465 1.14711,-36.10149 4.28072,-73.32633 3.13362,-37.22483 7.24502,-86.23066 9.13645,-108.901855 3.83389,-45.953954 6.73594,-55.707965 18.73289,-62.962646 6.67222,-4.034767 11.18658,-4.291591 75.43591,-4.291591 75.42389,0 76.97788,0.245071 85.93542,13.552388 3.15811,4.691687 5.1825,11.936432 6.06217,21.694919 2.43865,27.05277 11.94691,138.032905 14.2233,166.014015 3.25437,40.00228 2.93512,49.25551 -1.97732,57.31209 -6.87828,11.28062 -11.19144,12.51567 -47.83679,13.69778 l -33.62712,1.08475 -0.67983,7.05084 -0.67983,7.05085 h -20.47271 -20.47271 z"
       id="path10555" />
    <path
       style="fill:#ffffff;stroke-width:10.7005;paint-order:fill markers stroke"
       d="m 296.05933,366.3044 c 8.65084,-0.4118 22.80678,-0.4118 31.45762,0 8.65085,0.41179 1.57288,0.74872 -15.72881,0.74872 -17.3017,0 -24.37966,-0.33693 -15.72881,-0.74872 z"
       id="path10557" />
    <path
       style="fill:#ffffff;stroke-width:10.7005;paint-order:fill markers stroke"
       d="m 154.07123,500.22866 c -9.42252,-3.79459 -14.15689,-19.98045 -9.0943,-31.09161 3.04363,-6.68004 6.49424,-8.48225 35.64709,-18.61808 13.07586,-4.54619 34.2692,-12.02662 47.09632,-16.62318 l 23.32204,-8.35739 v -9.89526 c 0,-9.00247 -0.58722,-10.11691 -6.50848,-12.35193 -6.49257,-2.45067 -6.50847,-2.49956 -6.50847,-20.00106 v -17.54438 h -33.83459 c -30.50171,0 -34.44263,-0.43297 -40.00729,-4.39535 -3.39498,-2.41745 -6.75071,-6.2165 -7.45716,-8.44235 -0.88821,-2.7985 -4.21898,-4.48705 -10.79669,-5.47344 -16.0828,-2.41176 -34.22622,-18.63102 -39.94364,-35.70752 -1.38677,-4.14192 -2.46911,-20.97005 -2.46911,-38.3896 v -31.01502 l -10.305083,-0.66124 c -8.63835,-0.5543 -10.30509,-1.36303 -10.30509,-5.00023 0,-4.06196 1.65114,-4.37821 25.861343,-4.9534 18.90178,-0.44908 26.31225,0.11517 27.53691,2.09673 2.77415,4.48867 -2.42723,8.2804 -11.35881,8.2804 h -8.41232 v 31.31639 c 0,17.22402 1.03838,34.0647 2.30751,37.42373 6.67305,17.66168 33.98963,32.30293 37.81012,20.26562 0.74755,-2.35531 3.87381,-6.2604 6.94725,-8.67796 5.41057,-4.25596 8.48209,-4.39558 96.70034,-4.39558 h 91.11229 l 7.16131,7.59322 c 3.93874,4.17628 7.90663,7.59322 8.81753,7.59322 5.61591,0 19.43552,-13.16206 23.91149,-22.77374 4.48757,-9.63663 5.05656,-14.07599 5.07537,-39.59914 l 0.0212,-28.74576 -7.05085,-0.0332 c -9.02741,-0.0425 -13.10596,-2.67414 -12.11969,-7.81996 0.70222,-3.66377 3.30129,-4.14182 25.5309,-4.69589 25.03728,-0.62406 29.46701,0.60925 26.83392,7.47098 -0.69879,1.82103 -4.67976,2.9086 -10.64673,2.9086 h -9.5306 v 29.20675 c 0,23.86335 -0.79126,31.32161 -4.32504,40.76642 -4.82709,12.90162 -15.97064,24.86792 -29.41693,31.5889 -4.83606,2.41724 -9.94157,6.91622 -11.3456,9.99771 -1.40401,3.0815 -5.74555,7.54938 -9.64786,9.92862 -6.31578,3.85074 -10.95769,4.32678 -42.26158,4.334 l -35.1665,0.008 -0.63011,17.8983 -0.63011,17.89831 -7.15918,0.68791 -7.15917,0.6879 0.6507,11.01286 0.6507,11.01285 26.0339,9.51062 c 14.31864,5.23084 36.28474,12.94752 48.81356,17.14818 32.90461,11.03228 41.16345,21.77215 30.36377,39.48529 -7.92166,12.99271 -24.56494,14.49459 -35.16375,3.17314 -7.72714,-8.25396 -8.96801,-14.04368 -5.0299,-23.46889 1.8581,-4.44706 3.12148,-8.25311 2.80752,-8.45789 -0.31397,-0.2048 -9.3573,-3.5523 -20.09629,-7.4389 -10.73898,-3.88663 -25.63739,-9.42679 -33.10757,-12.31152 -7.47018,-2.88472 -14.06001,-5.24494 -14.64407,-5.24494 -0.58405,0 -1.06192,4.36815 -1.06192,9.707 0,8.4416 0.79338,10.11727 6.08611,12.85423 11.64929,6.0241 14.94674,23.8392 6.37769,34.45676 -9.30576,11.53037 -30.89895,9.81597 -37.51526,-2.97854 -6.13815,-11.8699 -2.04273,-27.0185 8.61757,-31.87567 4.83097,-2.20112 5.58644,-3.90324 5.58644,-12.58667 0,-7.13299 -0.78546,-9.74468 -2.71187,-9.01711 -1.49152,0.56332 -16.67515,6.27604 -33.74138,12.69494 -27.83765,10.47023 -30.88532,12.11828 -29.62769,16.02146 3.23429,10.03789 3.50888,16.72521 0.94129,22.92395 -4.49508,10.85206 -19.18116,15.78379 -31.8315,10.68932 z"
       id="path10559" />
  </g>
</svg>
